<svg xmlns="http://www.w3.org/2000/svg" viewBox="0 0 240 100" width="240" height="100" fill="none">
  <!-- SEC Energy Ellipse Symbol -->
  <g transform="translate(120, 26)">
    <!-- Blue Crescent -->
    <path d="M-22 -8 C-20 -20, 0 -22, 16 -12 C8 -18, -12 -16, -18 0 C-22 12, -8 22, 10 20 C-6 22, -24 8, -22 -8 Z" fill="#004b97"/>
    <!-- Orange Crescent -->
    <path d="M22 8 C20 20, 0 22, -16 12 C-8 18, 12 16, 18 0 C22 -12, 8 -22, -10 -20 C6 -22, 24 -8, 22 8 Z" fill="#f58220"/>
    <!-- Orange Pulse Dot -->
    <circle cx="6" cy="-4" r="3.5" fill="#f58220"/>
  </g>

  <!-- Typography -->
  <g text-anchor="middle">
    <text x="120" y="60" font-family="'Plus Jakarta Sans', sans-serif" font-size="13" font-weight="900" fill="#004b97">الشركة السعودية للكهرباء</text>
    <text x="120" y="74" font-family="'Space Grotesk', sans-serif" font-size="9.5" font-weight="800" fill="#004b97">Saudi Electricity Company</text>
    <text x="120" y="88" font-family="'Plus Jakarta Sans', sans-serif" font-size="8.5" font-weight="700" fill="#d97706">نعمل بإتقان من أجلكم</text>
  </g>
</svg>